<?xml version="1.0" standalone="no"?>
<!DOCTYPE svg PUBLIC "-//W3C//DTD SVG 20010904//EN"
 "http://www.w3.org/TR/2001/REC-SVG-20010904/DTD/svg10.dtd">
<svg version="1.0" xmlns="http://www.w3.org/2000/svg"
 width="138.000000pt" height="138.000000pt" viewBox="0 0 138.000000 138.000000"
 preserveAspectRatio="xMidYMid meet">

<g transform="translate(0.000000,138.000000) scale(0.100000,-0.100000)"
fill="#000000" stroke="none">
<path d="M484 1310 c-58 -23 -67 -89 -34 -258 24 -122 25 -200 5 -249 -31 -74
-13 -103 65 -103 33 0 48 6 71 29 26 26 29 36 29 92 0 34 -7 107 -16 163 -12
72 -14 124 -9 181 10 107 9 123 -5 140 -14 16 -72 19 -106 5z"/>
<path d="M208 998 c-290 -195 -255 -632 64 -784 31 -14 37 -21 32 -40 -18 -73
262 -112 392 -55 40 18 64 44 52 57 -3 2 -25 -3 -49 -12 -74 -28 -349 -23
-349 6 0 6 14 6 33 2 17 -4 88 -7 157 -6 104 0 134 4 181 22 134 53 249 159
287 265 14 41 20 47 37 41 11 -3 49 -8 85 -11 54 -4 74 -1 114 17 137 65 138
242 3 312 -54 28 -147 29 -197 3 -33 -17 -35 -17 -45 0 -40 69 -108 145 -163
183 -70 46 -83 50 -106 26 -31 -30 -19 -57 43 -103 105 -76 156 -173 155 -296
0 -66 -5 -91 -28 -142 -53 -117 -172 -203 -310 -225 -192 -30 -377 64 -454
230 -22 47 -26 72 -27 137 0 69 5 89 31 145 34 70 83 126 145 166 31 19 39 30
39 54 0 27 -22 50 -48 50 -6 0 -39 -19 -74 -42z m1001 -284 c58 -49 27 -130
-55 -141 -54 -7 -104 32 -104 81 0 78 95 114 159 60z"/>
<path d="M706 869 c-10 -16 -13 -40 -10 -93 4 -61 2 -76 -18 -111 -27 -46
-101 -100 -159 -115 -22 -6 -91 -10 -153 -9 -104 1 -116 -1 -135 -20 -11 -11
-30 -21 -41 -21 -20 0 -20 -1 -4 -32 29 -56 118 -134 181 -159 46 -18 78 -23
158 -23 88 -1 107 2 157 26 119 55 216 183 221 290 2 49 0 53 -20 52 -27 -1
-29 13 -7 44 26 37 -7 38 -57 2 -48 -34 -59 -28 -34 20 9 17 19 53 22 79 5 41
2 52 -16 70 -27 27 -66 27 -85 0z m72 -30 c2 -9 -5 -19 -14 -23 -21 -8 -50 17
-39 34 10 16 49 8 53 -11z"/>
<path d="M165 560 c-11 -17 18 -42 39 -34 9 4 16 14 14 23 -4 19 -43 27 -53
11z"/>
</g>
</svg>
